<svg width="22" height="18" viewBox="0 0 22 18" fill="none" xmlns="http://www.w3.org/2000/svg">
<path d="M2.41696 18.0002H19.583C20.8795 16.3719 21.6925 14.4079 21.9285 12.3347C22.1644 10.2615 21.8137 8.16342 20.9166 6.28216C20.0196 4.40089 18.6127 2.81305 16.8582 1.7016C15.1038 0.590155 13.073 0.000339472 11 0.00012207C8.927 0.000339472 6.89624 0.590155 5.14174 1.7016C3.38725 2.81305 1.98042 4.40089 1.08336 6.28216C0.186313 8.16342 -0.16445 10.2615 0.071497 12.3347C0.307444 14.4079 1.1205 16.3719 2.41696 18.0002V18.0002ZM11 1.38474C11.7565 1.38474 12.3755 2.00782 12.3755 2.76936C12.3755 3.5309 11.7565 4.15398 11 4.15398C10.2435 4.15398 9.62451 3.5309 9.62451 2.76936C9.62451 2.00782 10.2435 1.38474 11 1.38474ZM5.49805 4.15398C6.25457 4.15398 6.87354 4.77705 6.87354 5.53859C6.87354 6.30013 6.25457 6.92321 5.49805 6.92321C4.74154 6.92321 4.12257 6.30013 4.12257 5.53859C4.12257 4.77705 4.74154 4.15398 5.49805 4.15398ZM16.5019 4.15398C17.2585 4.15398 17.8774 4.77705 17.8774 5.53859C17.8774 6.30013 17.2585 6.92321 16.5019 6.92321C15.7454 6.92321 15.1265 6.30013 15.1265 5.53859C15.1265 4.77705 15.7454 4.15398 16.5019 4.15398ZM9.11558 11.8386L13.751 5.53859V13.8463C13.751 15.3694 12.513 16.6155 11 16.6155C9.48696 16.6155 8.24902 15.3694 8.24902 13.8463C8.24902 13.0571 8.57914 12.3509 9.11558 11.8386V11.8386ZM2.74708 9.69245C3.5036 9.69245 4.12257 10.3155 4.12257 11.0771C4.12257 11.8386 3.5036 12.4617 2.74708 12.4617C1.99056 12.4617 1.3716 11.8386 1.3716 11.0771C1.3716 10.3155 1.99056 9.69245 2.74708 9.69245ZM19.2529 9.69245C20.0094 9.69245 20.6284 10.3155 20.6284 11.0771C20.6284 11.8386 20.0094 12.4617 19.2529 12.4617C18.4964 12.4617 17.8774 11.8386 17.8774 11.0771C17.8774 10.3155 18.4964 9.69245 19.2529 9.69245ZM12.3755 13.8463C12.3755 13.0848 11.7565 12.4617 11 12.4617C10.2435 12.4617 9.62451 13.0848 9.62451 13.8463C9.62451 14.6078 10.2435 15.2309 11 15.2309C11.7565 15.2309 12.3755 14.6078 12.3755 13.8463Z" fill="white"/>
</svg>
