<svg width="31" height="30" viewBox="0 0 31 30" fill="none" xmlns="http://www.w3.org/2000/svg">
<path d="M1.52166 16.5001H3.04364V27C3.04364 28.6545 4.40886 30 6.08761 30H24.3514C26.0302 30 27.3954 28.6545 27.3954 27V16.5001H28.9174C29.2183 16.5001 29.5125 16.4121 29.7628 16.2472C30.013 16.0824 30.208 15.8482 30.3232 15.5741C30.4383 15.3001 30.4685 14.9985 30.4098 14.7076C30.3511 14.4167 30.2062 14.1494 29.9934 13.9397L16.2956 0.439812C16.1543 0.300395 15.9866 0.18979 15.802 0.114324C15.6173 0.038859 15.4194 1.52588e-05 15.2195 1.52588e-05C15.0196 1.52588e-05 14.8217 0.038859 14.6371 0.114324C14.4524 0.18979 14.2847 0.300395 14.1435 0.439812L0.445617 13.9397C0.232829 14.1494 0.0879266 14.4167 0.0292274 14.7076C-0.0294718 14.9985 0.000668076 15.3001 0.115837 15.5741C0.231005 15.8482 0.426031 16.0824 0.67626 16.2472C0.92649 16.4121 1.22069 16.5001 1.52166 16.5001ZM12.1755 27V19.5001H18.2635V27H12.1755ZM15.2195 3.62128L24.3514 12.6212V19.5001L24.3529 27H21.3074V19.5001C21.3074 17.8456 19.9422 16.5001 18.2635 16.5001H12.1755C10.4968 16.5001 9.13158 17.8456 9.13158 19.5001V27H6.08761V12.6212L15.2195 3.62128Z" fill="white"/>
</svg>
