<svg width="32" height="32" viewBox="0 0 32 32" fill="none" xmlns="http://www.w3.org/2000/svg">
<path d="M24.6668 26.6667H7.3335L3.3335 30.6667V8C3.3335 5.8 5.1335 4 7.3335 4H24.6668C26.8668 4 28.6668 5.8 28.6668 8V22.6667C28.6668 24.8667 26.8668 26.6667 24.6668 26.6667Z" fill="white"/>
<path d="M14.6665 13.3333H17.3332V20.6666H14.6665V13.3333Z" fill="black"/>
<path d="M15.9998 11.3333C16.7362 11.3333 17.3332 10.7364 17.3332 9.99999C17.3332 9.26361 16.7362 8.66666 15.9998 8.66666C15.2635 8.66666 14.6665 9.26361 14.6665 9.99999C14.6665 10.7364 15.2635 11.3333 15.9998 11.3333Z" fill="black"/>
</svg>
