<svg width="27" height="26" viewBox="0 0 27 26" fill="none" xmlns="http://www.w3.org/2000/svg">
<path d="M22.4234 2.59994H19.7854V1.29994C19.7854 0.955159 19.6464 0.624498 19.399 0.380701C19.1517 0.136903 18.8162 -6.10352e-05 18.4663 -6.10352e-05C18.1165 -6.10352e-05 17.781 0.136903 17.5337 0.380701C17.2863 0.624498 17.1473 0.955159 17.1473 1.29994V2.59994H9.23317V1.29994C9.23317 0.955159 9.0942 0.624498 8.84684 0.380701C8.59947 0.136903 8.26398 -6.10352e-05 7.91415 -6.10352e-05C7.56432 -6.10352e-05 7.22882 0.136903 6.98146 0.380701C6.73409 0.624498 6.59512 0.955159 6.59512 1.29994V2.59994H3.95707C2.90759 2.59994 1.9011 3.01084 1.159 3.74223C0.416905 4.47362 0 5.4656 0 6.49995V22.1C0 23.1343 0.416905 24.1263 1.159 24.8577C1.9011 25.5891 2.90759 26 3.95707 26H22.4234C23.4729 26 24.4794 25.5891 25.2215 24.8577C25.9636 24.1263 26.3805 23.1343 26.3805 22.1V6.49995C26.3805 5.4656 25.9636 4.47362 25.2215 3.74223C24.4794 3.01084 23.4729 2.59994 22.4234 2.59994ZM23.7424 22.1C23.7424 22.4448 23.6035 22.7754 23.3561 23.0192C23.1087 23.263 22.7732 23.4 22.4234 23.4H3.95707C3.60725 23.4 3.27175 23.263 3.02438 23.0192C2.77702 22.7754 2.63805 22.4448 2.63805 22.1V13H23.7424V22.1ZM23.7424 10.4H2.63805V6.49995C2.63805 6.15517 2.77702 5.82451 3.02438 5.58071C3.27175 5.33691 3.60725 5.19995 3.95707 5.19995H6.59512V6.49995C6.59512 6.84473 6.73409 7.17539 6.98146 7.41919C7.22882 7.66299 7.56432 7.79995 7.91415 7.79995C8.26398 7.79995 8.59947 7.66299 8.84684 7.41919C9.0942 7.17539 9.23317 6.84473 9.23317 6.49995V5.19995H17.1473V6.49995C17.1473 6.84473 17.2863 7.17539 17.5337 7.41919C17.781 7.66299 18.1165 7.79995 18.4663 7.79995C18.8162 7.79995 19.1517 7.66299 19.399 7.41919C19.6464 7.17539 19.7854 6.84473 19.7854 6.49995V5.19995H22.4234C22.7732 5.19995 23.1087 5.33691 23.3561 5.58071C23.6035 5.82451 23.7424 6.15517 23.7424 6.49995V10.4Z" fill="white"/>
</svg>
