<svg width="37" height="28" viewBox="0 0 37 28" fill="none" xmlns="http://www.w3.org/2000/svg">
<path d="M13.0503 4.66278C13.0503 3.42613 13.5995 2.24014 14.5771 1.3657C15.5547 0.491256 16.8806 0 18.2632 0C19.6457 0 20.9716 0.491256 21.9492 1.3657C22.9268 2.24014 23.476 3.42613 23.476 4.66278C23.476 5.89943 22.9268 7.08542 21.9492 7.95986C20.9716 8.83431 19.6457 9.32556 18.2632 9.32556C16.8806 9.32556 15.5547 8.83431 14.5771 7.95986C13.5995 7.08542 13.0503 5.89943 13.0503 4.66278V4.66278ZM18.2632 2.33372C17.9212 2.33372 17.5826 2.39397 17.2667 2.51101C16.9508 2.62806 16.6638 2.79962 16.422 3.01589C16.1802 3.23216 15.9884 3.48892 15.8575 3.77149C15.7267 4.05406 15.6593 4.35692 15.6593 4.66278C15.6593 4.96864 15.7267 5.2715 15.8575 5.55407C15.9884 5.83665 16.1802 6.0934 16.422 6.30967C16.6638 6.52595 16.9508 6.6975 17.2667 6.81455C17.5826 6.93159 17.9212 6.99184 18.2632 6.99184C18.9537 6.99184 19.616 6.74646 20.1043 6.30967C20.5927 5.87289 20.867 5.28048 20.867 4.66278C20.867 4.04508 20.5927 3.45267 20.1043 3.01589C19.616 2.57911 18.9537 2.33372 18.2632 2.33372V2.33372Z" fill="white"/>
<path d="M26.0908 5.82965C26.0908 5.36995 26.192 4.91475 26.3887 4.49004C26.5854 4.06533 26.8737 3.67943 27.2371 3.35437C27.6005 3.02931 28.0319 2.77146 28.5067 2.59554C28.9816 2.41962 29.4905 2.32907 30.0044 2.32907C30.5183 2.32907 31.0272 2.41962 31.5021 2.59554C31.9769 2.77146 32.4083 3.02931 32.7717 3.35437C33.1351 3.67943 33.4234 4.06533 33.6201 4.49004C33.8168 4.91475 33.918 5.36995 33.918 5.82965C33.918 6.75806 33.5057 7.64845 32.7717 8.30494C32.0378 8.96142 31.0423 9.33023 30.0044 9.33023C28.9665 9.33023 27.971 8.96142 27.2371 8.30494C26.5031 7.64845 26.0908 6.75806 26.0908 5.82965ZM30.0044 4.66279C29.6584 4.66279 29.3266 4.78573 29.082 5.00456C28.8373 5.22339 28.6999 5.52018 28.6999 5.82965C28.6999 6.13912 28.8373 6.43592 29.082 6.65475C29.3266 6.87357 29.6584 6.99651 30.0044 6.99651C30.3504 6.99651 30.6822 6.87357 30.9268 6.65475C31.1715 6.43592 31.3089 6.13912 31.3089 5.82965C31.3089 5.52018 31.1715 5.22339 30.9268 5.00456C30.6822 4.78573 30.3504 4.66279 30.0044 4.66279Z" fill="white"/>
<path d="M6.52293 2.32907C5.48499 2.32907 4.48956 2.69788 3.75563 3.35437C3.0217 4.01085 2.60938 4.90124 2.60938 5.82965C2.60938 6.75806 3.0217 7.64845 3.75563 8.30494C4.48956 8.96142 5.48499 9.33023 6.52293 9.33023C7.56087 9.33023 8.5563 8.96142 9.29024 8.30494C10.0242 7.64845 10.4365 6.75806 10.4365 5.82965C10.4365 4.90124 10.0242 4.01085 9.29024 3.35437C8.5563 2.69788 7.56087 2.32907 6.52293 2.32907ZM5.21841 5.82965C5.21841 5.52018 5.35585 5.22339 5.6005 5.00456C5.84514 4.78573 6.17695 4.66279 6.52293 4.66279C6.86891 4.66279 7.20072 4.78573 7.44537 5.00456C7.69001 5.22339 7.82745 5.52018 7.82745 5.82965C7.82745 6.13912 7.69001 6.43592 7.44537 6.65475C7.20072 6.87357 6.86891 6.99651 6.52293 6.99651C6.17695 6.99651 5.84514 6.87357 5.6005 6.65475C5.35585 6.43592 5.21841 6.13912 5.21841 5.82965Z" fill="white"/>
<path d="M8.52634 11.6639C8.06717 12.373 7.82593 13.1782 7.82712 13.9977H2.60904V19.832C2.60883 20.4125 2.77001 20.9839 3.07806 21.4948C3.38611 22.0057 3.83138 22.4401 4.37376 22.7588C4.91615 23.0776 5.53864 23.2706 6.18519 23.3207C6.83174 23.3707 7.48205 23.2762 8.07759 23.0455C8.27066 23.818 8.5733 24.5554 8.96466 25.2439C7.97444 25.6015 6.90119 25.7362 5.83918 25.6361C4.77716 25.536 3.75886 25.2043 2.87371 24.6699C1.98855 24.1355 1.26361 23.4149 0.762551 22.5714C0.261494 21.7279 -0.000354954 20.7872 3.61126e-07 19.832V13.9977C3.61126e-07 13.3787 0.27488 12.7851 0.76417 12.3475C1.25346 11.9098 1.91708 11.6639 2.60904 11.6639H8.52634Z" fill="white"/>
<path d="M27.562 25.2438C28.5522 25.6014 29.6255 25.7361 30.6875 25.636C31.7495 25.536 32.7678 25.2042 33.653 24.6698C34.5382 24.1354 35.2631 23.4148 35.7642 22.5713C36.2652 21.7278 36.5271 20.7871 36.5267 19.8319V13.9976C36.5267 13.3787 36.2518 12.7851 35.7625 12.3474C35.2733 11.9098 34.6096 11.6639 33.9177 11.6639H28.0003C28.4439 12.35 28.6996 13.1458 28.6996 13.9976H33.9177V19.8319C33.9179 20.4124 33.7567 20.9838 33.4486 21.4947C33.1406 22.0056 32.6953 22.44 32.1529 22.7587C31.6105 23.0775 30.9881 23.2705 30.3415 23.3206C29.6949 23.3706 29.0446 23.2761 28.4491 23.0454C28.2534 23.8179 27.9534 24.5554 27.562 25.2438Z" fill="white"/>
<path d="M13.0451 11.6639C12.3531 11.6639 11.6895 11.9098 11.2002 12.3474C10.7109 12.7851 10.436 13.3787 10.436 13.9976V20.9988C10.436 22.8556 11.2607 24.6364 12.7286 25.9493C14.1964 27.2623 16.1873 27.9999 18.2632 27.9999C20.3391 27.9999 22.3299 27.2623 23.7978 25.9493C25.2657 24.6364 26.0903 22.8556 26.0903 20.9988V13.9976C26.0903 13.3787 25.8154 12.7851 25.3261 12.3474C24.8369 11.9098 24.1732 11.6639 23.4813 11.6639H13.0451ZM13.0451 13.9976H23.4813V20.9988C23.4813 22.2367 22.9315 23.4238 21.9529 24.2992C20.9743 25.1745 19.6471 25.6662 18.2632 25.6662C16.8793 25.6662 15.552 25.1745 14.5734 24.2992C13.5948 23.4238 13.0451 22.2367 13.0451 20.9988V13.9976Z" fill="white"/>
</svg>
